<?xml version="1.0" standalone="no"?>
<!DOCTYPE svg PUBLIC "-//W3C//DTD SVG 20010904//EN"
 "http://www.w3.org/TR/2001/REC-SVG-20010904/DTD/svg10.dtd">
<svg version="1.0" xmlns="http://www.w3.org/2000/svg"
 width="650.000000pt" height="650.000000pt" viewBox="0 0 650.000000 650.000000"
 preserveAspectRatio="xMidYMid meet">

<g transform="translate(0.000000,650.000000) scale(0.100000,-0.100000)"
fill="#000000" stroke="none">
<path d="M3304 4719 c-251 -22 -463 -95 -661 -225 -44 -30 -90 -54 -101 -54
-23 0 -62 -44 -62 -70 0 -25 -13 -34 -130 -80 -174 -69 -220 -104 -277 -213
-25 -46 -28 -63 -28 -147 0 -85 4 -102 31 -160 34 -72 82 -126 131 -146 36
-16 119 -18 174 -5 21 5 97 3 185 -5 82 -7 227 -16 323 -20 l174 -7 30 -34
c89 -101 261 -110 364 -20 39 35 62 74 78 137 l11 45 250 67 249 66 20 -26
c50 -65 61 -72 120 -72 31 0 65 5 76 10 28 16 57 79 69 156 6 38 18 94 26 124
14 50 14 63 -1 134 -20 96 -48 173 -105 285 -90 180 -116 199 -325 231 -241
36 -436 46 -621 29z"/>
<path d="M900 2961 c-89 -19 -115 -64 -115 -196 0 -105 18 -149 69 -170 19 -8
110 -18 226 -24 163 -9 197 -14 208 -28 17 -23 15 -48 -4 -68 -13 -13 -40 -15
-167 -13 l-152 3 -15 32 -15 33 -79 0 -78 0 4 -70 c4 -79 25 -110 87 -132 35
-12 217 -15 581 -10 l125 2 24 55 23 55 185 0 184 0 24 -55 25 -55 414 0 414
0 23 55 23 55 186 0 186 0 23 -55 23 -55 456 0 457 0 24 55 23 55 185 0 184 0
24 -55 25 -55 150 0 150 0 0 240 c0 132 4 240 9 240 4 0 75 -108 156 -240
l147 -240 149 0 149 0 0 320 0 320 -85 0 -85 0 0 -240 c0 -132 -3 -240 -8
-240 -4 0 -73 107 -153 238 l-146 237 -151 3 -152 3 -2 -246 -3 -245 -111 242
-110 243 -135 3 -134 3 -114 -246 -114 -245 -199 0 c-126 0 -197 4 -193 10 3
5 93 82 200 170 l195 161 0 75 0 74 -335 0 -335 0 0 -75 0 -75 196 -2 196 -3
-185 -155 c-102 -85 -191 -155 -198 -155 -7 0 -60 105 -118 233 l-106 233
-134 -3 -135 -3 -110 -237 -110 -238 -198 0 -198 0 0 240 0 240 -90 0 -90 0
-2 -245 -3 -245 -111 242 -110 243 -135 3 -134 3 -105 -228 -105 -227 -6 61
c-3 34 -14 74 -23 88 -29 44 -72 55 -269 64 -100 5 -190 13 -199 16 -21 8 -24
55 -6 73 8 8 57 12 156 12 l143 0 10 -30 c11 -30 11 -30 90 -30 l79 0 0 48 c0
60 -26 111 -70 137 -32 18 -54 20 -235 22 -110 1 -216 -2 -235 -6z m976 -263
c27 -61 51 -115 52 -120 2 -4 -53 -8 -122 -8 l-125 0 31 67 c17 37 41 91 54
120 36 82 51 74 110 -59z m1293 -1 c28 -63 51 -117 51 -120 0 -4 -54 -7 -120
-7 -66 0 -120 2 -120 5 0 3 23 57 51 120 37 83 56 115 69 115 13 0 32 -31 69
-113z m1365 26 c21 -49 45 -103 52 -120 l14 -33 -124 0 -125 0 31 67 c17 37
41 91 54 120 34 78 51 72 98 -34z"/>
<path d="M1680 2130 c0 -28 -3 -30 -36 -30 -28 0 -35 -3 -32 -17 2 -12 14 -19
36 -21 l32 -3 0 -100 c0 -84 3 -102 19 -118 38 -38 164 -38 202 0 12 12 19 33
19 59 0 33 -3 40 -20 40 -16 0 -20 -7 -20 -33 0 -45 -15 -57 -76 -57 -76 0
-84 12 -84 120 l0 89 97 3 c84 3 98 6 101 21 3 15 -7 17 -97 17 l-101 0 0 30
c0 23 -4 30 -20 30 -16 0 -20 -7 -20 -30z"/>
<path d="M3670 2130 c0 -28 -3 -30 -36 -30 -28 0 -35 -3 -32 -17 2 -12 14 -19
36 -21 l32 -3 0 -95 c0 -53 5 -104 10 -114 22 -42 171 -50 212 -13 22 20 26
103 4 103 -7 0 -16 -14 -20 -32 -10 -48 -23 -58 -82 -58 -76 0 -84 12 -84 121
l0 89 100 0 c93 0 100 1 100 20 0 19 -7 20 -100 20 l-99 0 6 30 c5 27 3 30
-21 30 -22 0 -26 -4 -26 -30z"/>
<path d="M813 2090 c-21 -9 -43 -38 -43 -59 0 -20 48 -12 55 9 8 25 58 35 138
26 72 -7 97 -26 97 -72 l0 -33 -35 15 c-64 26 -227 12 -252 -22 -15 -21 -17
-78 -3 -104 6 -11 27 -24 48 -30 57 -15 172 -12 207 6 19 10 31 11 33 5 2 -6
12 -11 23 -11 18 0 19 8 19 109 0 60 -3 117 -6 126 -13 32 -59 45 -161 44 -54
0 -108 -4 -120 -9z m229 -157 c24 -22 23 -49 -4 -67 -32 -23 -200 -23 -222 0
-22 22 -20 50 6 68 33 23 194 22 220 -1z"/>
<path d="M1210 2000 c0 -168 26 -196 175 -188 61 3 78 7 99 27 26 24 26 24 26
3 0 -15 6 -22 20 -22 19 0 20 7 20 140 0 133 -1 140 -20 140 -19 0 -20 -7 -20
-97 -1 -106 -8 -125 -54 -143 -42 -16 -148 -13 -174 6 -20 14 -22 23 -22 125
l0 109 -25 0 -25 0 0 -100z"/>
<path d="M2064 2086 c-42 -19 -57 -60 -52 -147 3 -62 7 -74 30 -94 51 -44 245
-44 296 0 22 19 27 33 30 88 6 88 -11 135 -54 153 -43 18 -208 18 -250 0z
m228 -31 c44 -18 49 -154 7 -188 -20 -16 -37 -18 -116 -15 -111 4 -124 13
-131 90 -5 71 9 105 50 117 34 11 160 8 190 -4z"/>
<path d="M2480 1960 c0 -133 1 -140 20 -140 19 0 20 7 20 98 0 90 2 100 23
120 32 30 120 39 170 19 l37 -16 0 -110 c0 -104 1 -111 20 -111 18 0 20 7 20
80 0 110 16 145 72 160 52 14 125 6 150 -17 15 -14 18 -32 18 -120 0 -96 1
-103 20 -103 19 0 20 7 20 105 0 157 -15 175 -146 175 -75 0 -134 -18 -134
-41 0 -6 -14 1 -31 15 -27 23 -39 26 -108 26 -64 0 -83 -4 -105 -21 l-26 -20
0 20 c0 14 -6 21 -20 21 -19 0 -20 -7 -20 -140z"/>
<path d="M3233 2085 c-43 -18 -55 -45 -55 -126 -1 -73 14 -108 54 -131 29 -16
213 -16 251 0 35 15 57 65 57 132 0 77 -20 116 -67 129 -54 15 -202 13 -240
-4z m230 -30 c22 -9 32 -46 31 -113 -2 -78 -14 -86 -129 -90 -90 -4 -95 -3
-120 22 -21 21 -25 34 -25 84 0 66 12 88 55 102 32 10 158 7 188 -5z"/>
<path d="M4054 2086 c-41 -18 -58 -67 -52 -152 3 -47 9 -70 24 -84 27 -27 128
-44 211 -35 54 6 72 12 95 35 25 26 28 35 28 99 0 90 -11 118 -55 136 -45 19
-208 19 -251 1z m229 -32 c25 -9 37 -45 37 -105 0 -40 -5 -55 -25 -74 -22 -23
-32 -25 -107 -25 -108 0 -130 12 -142 73 -14 69 5 124 47 137 34 10 159 7 190
-6z"/>
<path d="M4470 1960 c0 -133 1 -140 20 -140 19 0 20 7 20 94 0 86 2 98 24 123
22 25 30 28 91 28 72 0 95 -15 95 -62 0 -16 6 -23 20 -23 31 0 28 63 -5 95
-21 22 -33 25 -98 25 -60 0 -79 -4 -101 -21 l-26 -20 0 20 c0 14 -6 21 -20 21
-19 0 -20 -7 -20 -140z"/>
<path d="M4902 2085 c-40 -18 -52 -48 -52 -136 0 -64 3 -73 28 -99 22 -22 41
-29 90 -35 105 -12 211 11 226 50 16 43 -14 49 -50 10 -21 -23 -30 -25 -114
-25 -83 0 -93 2 -115 25 -14 13 -25 36 -25 50 l0 25 155 0 155 0 0 35 c0 51
-24 91 -61 104 -45 16 -197 13 -237 -4z m205 -25 c30 -11 58 -53 48 -71 -4 -5
-64 -9 -136 -9 -117 0 -129 2 -129 18 0 29 28 60 58 65 55 8 130 7 159 -3z"/>
<path d="M5340 2089 c-13 -5 -28 -15 -32 -22 -10 -16 -10 -79 0 -95 14 -21 72
-32 172 -32 102 0 120 -7 120 -47 0 -33 -29 -43 -130 -43 -99 0 -130 10 -130
40 0 15 -7 20 -25 20 -32 0 -33 -29 -2 -65 19 -23 32 -26 108 -32 164 -11 222
11 222 86 0 68 -14 75 -160 81 -101 4 -128 8 -136 21 -25 40 20 69 106 69 84
0 129 -11 135 -32 3 -11 13 -18 29 -18 21 0 23 3 18 23 -15 47 -29 52 -153 54
-64 2 -128 -2 -142 -8z"/>
</g>
</svg>
