<svg width="512" height="512" viewBox="0 0 512 512" fill="none" xmlns="http://www.w3.org/2000/svg">
<g clip-path="url(#clip0)">
<path d="M490.115 12.813H132.569C120.557 12.827 110.823 22.561 110.809 34.573V133.193L94.4588 108.668C86.9748 97.379 71.9238 93.992 60.3258 100.988L26.6878 121.212C15.6718 127.676 7.59084 138.158 4.14284 150.456C-8.12816 195.137 0.976852 272.116 113.967 385.123C203.822 474.885 270.817 499.06 316.991 499.06C327.681 499.109 338.33 497.72 348.65 494.93C360.943 491.482 371.425 483.412 377.902 472.411L398.1 438.738C405.068 427.149 401.684 412.129 390.42 404.647L309.874 350.955C298.825 343.647 284.015 346.05 275.843 356.476L252.393 386.624C249.942 389.85 245.496 390.79 241.948 388.834L237.485 386.376C222.799 378.372 204.521 368.405 167.606 331.49C163.612 327.496 159.994 323.759 156.598 320.183H490.115C502.097 320.192 511.828 310.507 511.875 298.525V34.573C511.861 22.561 502.127 12.827 490.115 12.813ZM229.319 401.362L233.654 403.743C244.551 409.836 258.268 407.009 265.867 397.104L289.317 366.956C291.983 363.56 296.807 362.777 300.41 365.155L380.956 418.847C384.615 421.286 385.715 426.168 383.456 429.94L363.258 463.613C359.04 470.846 352.187 476.166 344.135 478.461C303.798 489.554 233.202 480.168 126.057 373.015C18.9118 265.862 9.56084 195.273 20.6278 154.97C22.9208 146.919 28.2378 140.067 35.4668 135.847L69.1398 115.64C72.9128 113.386 77.7918 114.485 80.2328 118.14L133.95 198.686C136.332 202.288 135.549 207.116 132.149 209.779L101.992 233.237C92.0888 240.834 89.2608 254.548 95.3528 265.442L97.7418 269.777C106.275 285.427 116.882 304.9 155.547 343.556C194.213 382.213 213.678 392.828 229.319 401.362ZM494.809 298.526C494.781 301.093 492.682 303.153 490.116 303.134H141.204C130.121 290.46 120.564 276.53 112.728 261.628L110.27 257.148C108.31 253.608 109.248 249.166 112.472 246.72L142.629 223.262C153.059 215.092 155.462 200.28 148.15 189.231L127.875 158.801V34.573C127.861 33.324 128.351 32.122 129.234 31.239C130.117 30.356 131.319 29.866 132.568 29.88H490.115C491.364 29.866 492.566 30.356 493.449 31.239C494.332 32.122 494.822 33.324 494.808 34.573V298.526H494.809Z" fill="white"/>
<path d="M460.726 52.3229L318.108 160.483C314.073 163.415 308.609 163.415 304.574 160.483L162.009 52.3229C158.253 49.4739 152.898 50.2099 150.05 53.9659C147.201 57.7219 147.937 63.0769 151.693 65.9249L294.276 174.076C304.42 181.57 318.265 181.57 328.409 174.076L471.035 65.9249C472.84 64.5569 474.027 62.5269 474.334 60.2829C474.641 58.0389 474.044 55.7649 472.673 53.9619C469.825 50.2129 464.479 49.4799 460.726 52.3229Z" fill="white"/>
<path d="M238.518 174.793L151.103 268.404C147.889 271.851 148.078 277.252 151.525 280.466C154.972 283.68 160.373 283.491 163.587 280.044L251.003 186.391C253.891 182.907 253.556 177.774 250.241 174.693C246.925 171.612 241.781 171.656 238.518 174.793Z" fill="white"/>
<path d="M384.73 174.793C381.516 171.346 376.116 171.156 372.668 174.371C369.221 177.585 369.031 182.985 372.246 186.433L459.636 280.044C462.85 283.491 468.25 283.681 471.698 280.466C475.145 277.252 475.335 271.852 472.12 268.404L384.73 174.793Z" fill="white"/>
</g>
<defs>
<clipPath id="clip0">
<rect width="511.874" height="511.874" fill="white"/>
</clipPath>
</defs>
</svg>
