<svg id="svg" version="1.1" xmlns="http://www.w3.org/2000/svg" xmlns:xlink="http://www.w3.org/1999/xlink" width="400" height="400" viewBox="0, 0, 400,400"><g id="svgg"><path id="path0" d="M203.329 109.592 C 187.864 110.974,174.822 115.420,162.674 123.451 C 159.914 125.276,157.096 126.769,156.411 126.769 C 154.995 126.769,152.615 129.475,152.615 131.085 C 152.615 132.639,151.786 133.148,144.615 135.990 C 130.249 141.685,125.846 146.888,125.859 158.154 C 125.875 172.240,134.384 180.124,146.526 177.301 C 147.844 176.995,152.462 177.104,157.910 177.572 C 162.952 178.004,171.898 178.560,177.790 178.807 L 188.502 179.256 190.347 181.356 C 198.724 190.898,214.301 186.769,217.521 174.154 L 218.228 171.385 233.576 167.281 L 248.923 163.178 250.154 164.791 C 253.215 168.802,253.929 169.231,257.551 169.231 C 263.259 169.231,265.165 167.047,266.475 159.008 C 266.855 156.677,267.581 153.246,268.088 151.385 C 269.860 144.883,264.886 129.368,257.406 118.063 C 253.185 111.686,226.567 107.516,203.329 109.592 M55.385 217.772 C 49.924 218.942,48.307 221.701,48.310 229.846 C 48.314 240.135,49.413 240.858,66.490 241.809 C 79.076 242.511,80.000 242.771,80.000 245.612 C 80.000 248.295,78.575 248.657,68.710 248.477 L 59.385 248.308 58.462 246.321 L 57.538 244.334 52.700 244.321 L 47.861 244.308 48.103 248.585 C 48.620 257.730,49.600 257.939,89.231 257.356 L 96.923 257.243 98.384 253.852 L 99.844 250.462 111.187 250.462 L 122.529 250.462 124.026 253.846 L 125.523 257.231 151.010 257.231 L 176.498 257.231 177.901 253.846 L 179.303 250.462 190.769 250.462 L 202.235 250.462 203.638 253.846 L 205.041 257.231 233.136 257.220 L 261.231 257.210 262.691 253.836 L 264.152 250.462 275.495 250.462 L 286.837 250.462 288.334 253.846 L 289.831 257.231 299.069 257.231 L 308.308 257.231 308.308 242.462 C 308.308 234.338,308.546 227.692,308.837 227.692 C 309.129 227.692,313.448 234.338,318.436 242.462 L 327.505 257.231 336.676 257.231 L 345.846 257.231 345.846 237.538 L 345.846 217.846 340.615 217.846 L 335.385 217.846 335.385 232.615 C 335.385 240.738,335.172 247.385,334.912 247.385 C 334.652 247.385,330.407 240.808,325.479 232.769 L 316.518 218.154 307.193 217.984 L 297.868 217.814 297.703 232.922 L 297.538 248.030 290.726 233.092 L 283.914 218.154 275.645 217.984 L 267.375 217.813 260.378 232.907 L 253.380 248.000 241.115 248.000 C 233.331 248.000,228.985 247.781,229.220 247.402 C 229.423 247.073,234.978 242.348,241.564 236.902 L 253.538 227.000 253.538 222.423 L 253.538 217.846 232.923 217.846 L 212.308 217.846 212.308 222.449 L 212.308 227.051 224.366 227.218 L 236.425 227.385 225.023 236.923 C 218.752 242.169,213.282 246.462,212.866 246.462 C 212.451 246.462,209.179 240.016,205.594 232.138 L 199.077 217.814 190.804 217.984 L 182.530 218.154 175.762 232.769 L 168.993 247.385 156.804 247.385 L 144.615 247.385 144.615 232.615 L 144.615 217.846 139.088 217.846 L 133.560 217.846 133.395 232.931 L 133.231 248.016 126.428 233.085 L 119.626 218.154 111.351 217.985 L 103.077 217.815 96.615 231.814 L 90.154 245.813 89.790 242.024 C 89.051 234.339,87.295 233.422,71.842 232.650 C 59.024 232.011,58.462 231.882,58.462 229.596 C 58.462 226.704,59.259 226.462,68.770 226.462 L 77.602 226.462 78.246 228.308 C 78.888 230.149,78.903 230.154,83.753 230.154 L 88.615 230.154 88.614 227.231 C 88.613 223.477,87.028 220.371,84.308 218.790 C 82.004 217.451,60.428 216.692,55.385 217.772 M115.430 233.949 C 117.097 237.728,118.554 241.051,118.667 241.333 C 118.779 241.615,115.405 241.846,111.167 241.846 L 103.462 241.846 105.342 237.700 C 106.376 235.420,107.866 232.097,108.654 230.315 C 110.884 225.272,111.824 225.776,115.430 233.949 M195.003 234.048 C 196.736 237.882,198.154 241.206,198.154 241.433 C 198.154 241.660,194.831 241.846,190.769 241.846 C 186.708 241.846,183.385 241.709,183.385 241.541 C 183.385 241.373,184.804 238.050,186.539 234.156 C 190.628 224.980,190.903 224.977,195.003 234.048 M279.012 232.462 C 280.308 235.423,281.757 238.746,282.231 239.846 L 283.093 241.846 275.431 241.846 L 267.769 241.846 269.649 237.700 C 270.683 235.420,272.174 232.097,272.962 230.315 C 275.083 225.519,276.137 225.893,279.012 232.462 M103.385 268.923 C 103.385 270.630,103.219 270.769,101.186 270.769 C 98.212 270.769,98.391 272.826,101.390 273.116 L 103.385 273.309 103.385 279.424 C 103.385 287.572,105.639 289.590,113.296 288.297 C 117.592 287.571,120.877 280.615,116.923 280.615 C 115.941 280.615,115.692 281.026,115.692 282.646 C 115.692 285.443,114.741 286.154,110.998 286.154 C 106.356 286.154,105.846 285.420,105.846 278.748 L 105.846 273.275 111.839 273.099 C 116.975 272.948,117.861 272.769,118.038 271.846 C 118.223 270.878,117.617 270.769,112.045 270.769 L 105.846 270.769 105.846 268.923 C 105.846 267.487,105.573 267.077,104.615 267.077 C 103.658 267.077,103.385 267.487,103.385 268.923 M225.846 268.923 C 225.846 270.630,225.680 270.769,223.647 270.769 C 220.674 270.769,220.853 272.826,223.851 273.116 L 225.846 273.309 225.846 279.156 C 225.846 286.110,226.285 287.124,229.687 288.040 C 235.886 289.709,240.615 287.653,240.615 283.289 C 240.615 280.079,239.135 279.558,238.535 282.557 C 237.933 285.566,237.111 286.154,233.507 286.154 C 228.809 286.154,228.308 285.438,228.308 278.725 L 228.308 273.231 234.462 273.231 C 240.205 273.231,240.615 273.149,240.615 272.000 C 240.615 270.851,240.205 270.769,234.477 270.769 L 228.338 270.769 228.708 268.923 C 229.043 267.247,228.928 267.077,227.462 267.077 C 226.077 267.077,225.846 267.341,225.846 268.923 M50.040 271.389 C 48.717 271.922,47.385 273.752,47.385 275.036 C 47.385 276.247,50.357 275.760,50.762 274.483 C 52.113 270.228,65.231 272.777,65.231 277.295 L 65.231 279.322 63.097 278.430 C 59.167 276.788,49.115 277.642,47.575 279.749 C 46.617 281.059,46.518 284.534,47.392 286.167 C 48.683 288.579,59.348 289.589,63.065 287.652 C 64.248 287.035,64.976 286.927,65.116 287.348 C 65.235 287.706,65.864 288.000,66.513 288.000 C 67.719 288.000,68.364 276.313,67.310 273.566 C 66.351 271.068,54.534 269.578,50.040 271.389 M74.462 276.943 C 74.462 287.237,76.084 288.979,85.243 288.516 C 88.991 288.327,90.039 288.033,91.346 286.806 C 92.921 285.326,92.923 285.326,92.923 286.662 C 92.923 287.590,93.300 288.000,94.154 288.000 C 95.326 288.000,95.385 287.590,95.385 279.385 C 95.385 271.179,95.326 270.769,94.154 270.769 C 93.009 270.769,92.922 271.186,92.904 276.769 C 92.877 284.955,91.752 286.154,84.097 286.154 C 77.945 286.154,77.538 285.617,77.538 277.504 L 77.538 270.769 76.000 270.769 L 74.462 270.769 74.462 276.943 M127.028 271.642 C 123.180 273.318,122.231 283.508,125.650 286.449 C 128.803 289.161,140.728 289.167,143.879 286.457 C 147.319 283.498,146.308 273.260,142.414 271.633 C 139.731 270.512,129.610 270.518,127.028 271.642 M152.615 279.385 C 152.615 287.590,152.674 288.000,153.846 288.000 C 154.993 288.000,155.077 287.590,155.077 281.953 C 155.077 273.602,159.582 270.367,166.934 273.439 L 169.231 274.399 169.231 281.199 C 169.231 287.590,169.305 288.000,170.462 288.000 C 171.590 288.000,171.692 287.590,171.692 283.057 C 171.692 274.482,174.207 271.865,181.487 272.863 C 186.011 273.483,186.462 274.277,186.462 281.634 C 186.462 287.590,186.541 288.000,187.692 288.000 C 189.126 288.000,189.563 276.540,188.240 273.635 C 186.545 269.915,171.692 269.615,171.692 273.301 C 171.692 273.661,170.840 273.239,169.799 272.362 C 167.221 270.193,159.297 270.001,156.698 272.045 L 155.077 273.320 155.077 272.045 C 155.077 271.179,154.681 270.769,153.846 270.769 C 152.674 270.769,152.615 271.179,152.615 279.385 M198.972 271.666 C 194.115 273.779,194.081 284.806,198.923 287.495 C 200.686 288.474,211.972 288.471,214.337 287.491 C 219.483 285.358,219.020 272.896,213.741 271.431 C 210.391 270.500,201.319 270.645,198.972 271.666 M249.451 271.659 C 245.956 273.180,244.779 283.206,247.747 286.175 C 250.859 289.287,263.446 289.264,266.569 286.141 C 269.929 282.781,268.866 273.300,264.947 271.663 C 262.170 270.502,252.115 270.500,249.451 271.659 M275.077 279.385 C 275.077 287.590,275.136 288.000,276.308 288.000 C 277.452 288.000,277.538 287.590,277.538 282.188 C 277.538 274.283,278.577 272.923,284.612 272.923 C 289.071 272.923,290.462 273.829,290.462 276.733 C 290.462 277.744,290.817 278.154,291.692 278.154 C 293.578 278.154,293.393 274.260,291.413 272.280 C 289.325 270.192,281.701 270.046,279.160 272.045 L 277.538 273.320 277.538 272.045 C 277.538 271.179,277.143 270.769,276.308 270.769 C 275.136 270.769,275.077 271.179,275.077 279.385 M301.688 271.689 C 297.906 273.332,296.915 282.856,300.186 286.127 C 303.840 289.781,318.122 289.102,319.618 285.203 C 320.617 282.600,318.760 282.243,316.561 284.615 C 312.971 288.489,300.923 286.140,300.923 281.566 L 300.923 280.000 310.462 280.000 L 320.000 280.000 320.000 277.816 C 320.000 274.735,318.531 272.252,316.235 271.451 C 313.449 270.480,304.118 270.632,301.688 271.689 M328.633 271.429 C 326.649 272.254,326.173 273.079,326.173 275.692 C 326.173 279.765,328.087 280.615,337.257 280.615 C 343.503 280.615,344.615 281.049,344.615 283.486 C 344.615 285.562,342.841 286.154,336.615 286.154 C 330.538 286.154,328.615 285.557,328.615 283.671 C 328.615 282.791,328.196 282.462,327.077 282.462 C 325.090 282.462,325.020 284.257,326.923 286.452 C 328.151 287.868,328.906 288.091,333.595 288.417 C 343.678 289.118,347.245 287.739,347.245 283.140 C 347.245 278.942,346.427 278.527,337.435 278.162 C 329.297 277.831,327.873 277.283,328.809 274.844 C 329.911 271.974,343.105 271.721,343.846 274.555 C 344.033 275.271,344.703 275.692,345.652 275.692 C 347.319 275.692,347.220 273.860,345.452 272.000 C 344.385 270.877,331.049 270.424,328.633 271.429 M141.047 273.543 C 143.782 274.619,144.084 282.986,141.464 285.107 C 139.524 286.678,129.261 286.450,127.613 284.800 C 124.868 282.053,126.044 274.292,129.360 273.271 C 131.443 272.629,139.184 272.810,141.047 273.543 M213.082 273.556 C 215.230 274.401,215.843 282.881,213.897 284.829 C 211.981 286.747,201.675 286.654,199.723 284.702 C 197.948 282.927,197.456 276.882,198.924 274.875 C 200.417 272.833,209.170 272.018,213.082 273.556 M263.586 273.572 C 266.283 274.632,266.795 282.184,264.336 284.643 C 262.593 286.386,254.036 286.850,251.077 285.362 C 247.447 283.537,248.041 274.441,251.867 273.259 C 253.952 272.614,261.674 272.821,263.586 273.572 M314.285 273.261 C 316.126 273.903,317.875 276.495,317.202 277.585 C 316.464 278.780,300.923 278.279,300.923 277.060 C 300.923 275.287,302.655 273.331,304.468 273.056 C 307.886 272.537,312.483 272.633,314.285 273.261 M64.105 281.018 C 67.420 284.018,64.394 286.154,56.830 286.154 C 49.631 286.154,46.686 283.698,50.598 280.958 C 52.595 279.559,62.542 279.604,64.105 281.018 " stroke="none" fill="#000000" fill-rule="evenodd"></path></g></svg>